HIERARCHY
ROOT SimulationBone
{
	OFFSET 0.000000 0.000000 0.000000
	CHANNELS 6 Xposition Yposition Zposition Zrotation Yrotation Xrotation 
	JOINT Hips
	{
		OFFSET 0.000000 0.000000 0.000000
		CHANNELS 6 Xposition Yposition Zposition Zrotation Yrotation Xrotation 
		JOINT RightUpLeg
		{
			OFFSET 0.103456 1.857829 10.548506
			CHANNELS 3 Zrotation Yrotation Xrotation
			JOINT RightLeg
			{
				OFFSET 43.499992 -0.000038 -0.000002
				CHANNELS 3 Zrotation Yrotation Xrotation
				JOINT RightFoot
				{
					OFFSET 42.372192 0.000015 -0.000007
					CHANNELS 3 Zrotation Yrotation Xrotation
					JOINT RightToe
					{
						OFFSET 17.299999 -0.000002 0.000003
						CHANNELS 3 Zrotation Yrotation Xrotation
						End Site
						{
							OFFSET 0.000000 0.000000 0.000000
						}
					}
				}
			}
		}
		JOINT LeftUpLeg
		{
			OFFSET 0.103457 1.857829 -10.548503
			CHANNELS 3 Zrotation Yrotation Xrotation
			JOINT LeftLeg
			{
				OFFSET 43.500042 -0.000027 0.000008
				CHANNELS 3 Zrotation Yrotation Xrotation
				JOINT LeftFoot
				{
					OFFSET 42.372257 -0.000008 0.000014
					CHANNELS 3 Zrotation Yrotation Xrotation
					JOINT LeftToe
					{
						OFFSET 17.299992 -0.000005 0.000004
						CHANNELS 3 Zrotation Yrotation Xrotation
						End Site
						{
							OFFSET 0.000000 0.000000 0.000000
						}
					}
				}
			}
		}
		JOINT Spine
		{
			OFFSET 6.901968 -2.603733 -0.000001
			CHANNELS 3 Zrotation Yrotation Xrotation
			JOINT Spine1
			{
				OFFSET 12.588099 0.000002 0.000000
				CHANNELS 3 Zrotation Yrotation Xrotation
				JOINT Spine2
				{
					OFFSET 12.343206 0.000000 -0.000001
					CHANNELS 3 Zrotation Yrotation Xrotation
					JOINT Neck
					{
						OFFSET 25.832886 -0.000004 0.000003
						CHANNELS 3 Zrotation Yrotation Xrotation
						JOINT Head
						{
							OFFSET 11.766620 0.000005 -0.000001
							CHANNELS 3 Zrotation Yrotation Xrotation
							End Site
							{
								OFFSET 0.000000 0.000000 0.000000
							}
						}
					}
					JOINT RightShoulder
					{
						OFFSET 19.745899 -1.480370 6.000108
						CHANNELS 3 Zrotation Yrotation Xrotation
						JOINT RightArm
						{
							OFFSET 11.284125 -0.000009 -0.000018
							CHANNELS 3 Zrotation Yrotation Xrotation
							JOINT RightForeArm
							{
								OFFSET 33.000050 0.000004 0.000032
								CHANNELS 3 Zrotation Yrotation Xrotation
								JOINT RightHand
								{
									OFFSET 25.200008 0.000015 0.000008
									CHANNELS 3 Zrotation Yrotation Xrotation
									End Site
									{
										OFFSET 0.000000 0.000000 0.000000
									}
								}
							}
						}
					}
					JOINT LeftShoulder
					{
						OFFSET 19.746099 -1.480375 -6.000073
						CHANNELS 3 Zrotation Yrotation Xrotation
						JOINT LeftArm
						{
							OFFSET 11.284138 -0.000015 -0.000012
							CHANNELS 3 Zrotation Yrotation Xrotation
							JOINT LeftForeArm
							{
								OFFSET 33.000092 0.000017 0.000013
								CHANNELS 3 Zrotation Yrotation Xrotation
								JOINT LeftHand
								{
									OFFSET 25.199780 0.000135 0.000422
									CHANNELS 3 Zrotation Yrotation Xrotation
									End Site
									{
										OFFSET 0.000000 0.000000 0.000000
									}
								}
							}
						}
					}
				}
			}
		}
	}
}
MOTION
Frames: 13
Frame Time: 0.016667
-31.213497 0.000000 -377.718699 0.000000 -8.318767 0.000000 -2.398468 91.031319 2.368740 88.646698 2.562720 -179.333190 168.200580 1.672391 154.761227 -25.971153 5.583515 -12.046020 91.208911 7.601186 -3.115191 21.454562 0.003108 0.000017 157.987275 7.606903 -171.210781 -38.855760 -2.058427 2.522956 80.341185 0.761624 10.300418 21.454553 -0.003092 -0.000000 7.413802 -1.125533 -1.839564 4.851003 -2.173510 -3.725002 4.533393 -2.196088 -3.711833 23.987867 -4.688635 -28.194023 -32.113660 23.924856 -43.014136 149.627146 -83.572901 29.091109 15.627678 63.322327 17.874216 -41.827415 -12.283082 1.356694 5.025435 -2.245701 16.189396 -146.082798 80.237401 35.965231 -10.125670 -67.266056 -37.275533 -31.295595 15.863861 -1.310829 11.681920 1.660210 1.291115 
-31.657921 0.000000 -377.616385 0.000000 -8.562367 0.000000 -2.305819 91.051243 2.360137 88.786344 2.551487 -179.300489 168.099526 1.575118 154.725812 -25.990109 5.591984 -12.132987 90.989344 7.660279 -3.117600 21.454560 0.003106 0.000018 158.812990 8.231015 -171.254543 -39.666009 -2.100600 2.613357 80.553127 0.623088 10.057552 21.454551 -0.003092 0.000000 7.393119 -1.123357 -1.763342 4.808160 -2.171942 -3.572090 4.490488 -2.194555 -3.558933 23.981345 -4.862520 -28.104625 -32.003707 23.997340 -42.921510 152.250065 -83.456952 26.454476 16.010956 63.290353 18.851033 -40.818043 -12.171667 1.322563 5.292324 -2.236692 15.753785 -146.150673 80.254827 35.895701 -10.100805 -67.325854 -37.440755 -30.897450 15.520227 -1.280725 11.784603 1.041147 1.024448 
-32.101127 0.000000 -377.495294 0.000000 -8.791862 0.000000 -2.214587 91.067200 2.344640 88.928803 2.537626 -179.274342 167.992423 1.466905 154.704973 -26.036641 5.599817 -12.222239 90.777967 7.719474 -3.132914 21.454558 0.003105 0.000018 159.677720 8.852601 -171.391918 -40.352429 -2.079831 2.613236 80.751099 0.564745 9.878392 21.454550 -0.003093 0.000000 7.376315 -1.119375 -1.686141 4.772994 -2.166988 -3.417223 4.455266 -2.189305 -3.404096 23.980239 -5.036569 -28.013414 -31.888940 24.062397 -42.821781 154.564540 -83.307766 24.129239 16.547222 63.223050 19.871152 -39.941774 -12.060447 1.291884 5.490509 -2.191578 15.345680 -146.094273 80.260084 35.952677 -10.062850 -67.390953 -37.630167 -30.538321 15.214771 -1.253989 11.853641 0.466206 0.734801 
-32.544466 0.000000 -377.355361 0.000000 -9.008704 0.000000 -2.121890 91.078698 2.322957 89.073065 2.520817 -179.250527 167.876733 1.346312 154.698482 -26.116108 5.606210 -12.312590 90.576748 7.777829 -3.162050 21.454557 0.003106 0.000018 160.565972 9.456223 -171.636601 -40.910994 -1.989709 2.503022 80.906041 0.569703 9.629852 21.454550 -0.003094 -0.000001 7.363590 -1.114761 -1.610602 4.746008 -2.161958 -3.265758 4.428242 -2.182726 -3.252660 23.959566 -5.156692 -27.906590 -31.778455 24.083636 -42.684745 156.305416 -83.181430 22.380035 17.315096 63.169632 20.850285 -39.238611 -11.890567 1.262340 5.607416 -2.096972 15.194500 -146.086982 80.256747 35.960188 -10.013510 -67.467126 -37.887028 -30.189396 14.983374 -1.232330 11.854631 0.007883 0.506943 
-32.989390 0.000000 -377.195496 0.000000 -9.215057 0.000000 -2.028930 91.082703 2.295952 89.221424 2.492159 -179.231564 167.751727 1.215700 154.698580 -26.234187 5.605451 -12.402322 90.385422 7.834909 -3.198585 21.454558 0.003108 0.000017 161.466437 10.059599 -171.965490 -41.358533 -1.852085 2.276656 81.041355 0.664496 9.409559 21.454550 -0.003096 -0.000002 7.354724 -1.111902 -1.537534 4.726857 -2.160537 -3.119387 4.409050 -2.179465 -3.106298 23.936063 -5.245552 -27.784865 -31.683956 24.076057 -42.522568 157.912371 -83.096714 20.762896 18.213079 63.124859 21.882513 -38.663624 -11.706920 1.236014 5.720401 -2.016087 15.142850 -146.205017 80.266566 35.840109 -9.910466 -67.555404 -38.181384 -29.868809 14.810191 -1.214981 11.868236 -0.347536 0.423706 
-33.437423 0.000000 -377.013926 0.000000 -9.413103 0.000000 -1.937643 91.077080 2.264095 89.374796 2.444773 -179.218928 167.615700 1.075575 154.696131 -26.394400 5.592681 -12.487856 90.202148 7.888966 -3.236660 21.454559 0.003107 0.000017 162.369057 10.676989 -172.354764 -41.711685 -1.688207 1.939947 81.188775 0.869358 9.327174 21.454544 -0.003099 -0.000002 7.349033 -1.112145 -1.467326 4.714214 -2.164235 -2.978905 4.396344 -2.182112 -2.965796 23.930982 -5.340287 -27.654755 -31.611330 24.062510 -42.355528 159.833517 -83.051202 18.825947 19.116523 63.072752 23.057027 -38.159954 -11.560970 1.214046 5.899429 -2.006581 15.002932 -146.464583 80.311303 35.575205 -9.712187 -67.657921 -38.470280 -29.601005 14.674530 -1.201126 11.968556 -0.636704 0.524865 
-33.890078 0.000000 -376.809833 0.000000 -9.602354 0.000000 -1.848715 91.065826 2.228633 89.525430 2.388486 -179.205023 167.461144 0.915299 154.684114 -26.591382 5.571440 -12.558818 90.020963 7.932327 -3.279990 21.454560 0.003104 0.000017 163.262913 11.278898 -172.817091 -41.965190 -1.489578 1.530881 81.360727 1.137688 9.309222 21.454541 -0.003100 -0.000001 7.344417 -1.111459 -1.400521 4.703751 -2.165494 -2.845201 4.385819 -2.182767 -2.832086 23.942294 -5.458861 -27.531223 -31.541085 24.045362 -42.194562 161.979436 -83.020278 16.660727 19.996722 63.008213 24.272982 -37.709105 -11.426722 1.193967 6.096464 -2.032276 14.852260 -146.734152 80.395233 35.298796 -9.424362 -67.786489 -38.731723 -29.388391 14.588027 -1.191573 12.088672 -0.903204 0.684611 
-34.348523 0.000000 -376.584261 0.000000 -9.779246 0.000000 -1.761934 91.053116 2.192163 89.666329 2.334049 -179.186714 167.283712 0.724116 154.653548 -26.816620 5.546186 -12.604488 89.837687 7.957119 -3.332166 21.454559 0.003102 0.000016 164.137906 11.833912 -173.356846 -42.113191 -1.252106 1.082504 81.562200 1.421690 9.258257 21.454545 -0.003098 -0.000001 7.338948 -1.106159 -1.337115 4.691505 -2.157632 -2.718090 4.373536 -2.174192 -2.705021 23.964293 -5.604751 -27.426546 -31.454558 24.019070 -42.044105 164.138811 -82.981405 14.481654 20.850005 62.930416 25.408174 -37.303222 -11.270117 1.173754 6.247638 -2.043531 14.795019 -146.866765 80.512533 35.160193 -9.075603 -67.944945 -38.948609 -29.229363 14.557174 -1.186642 12.145626 -1.167360 0.773846 
-34.813599 0.000000 -376.338550 0.000000 -9.940063 0.000000 -1.674475 91.037720 2.155867 89.802293 2.279234 -179.178615 167.097463 0.501998 154.585103 -27.057793 5.516372 -12.619481 89.659373 7.960765 -3.386830 21.454558 0.003104 0.000016 164.989011 12.344103 -173.904239 -42.168986 -1.021661 0.575977 81.789704 1.733867 9.164820 21.454551 -0.003095 -0.000001 7.332776 -1.099320 -1.274757 4.677832 -2.146594 -2.592995 4.359840 -2.162345 -2.579992 23.999832 -5.742820 -27.333824 -31.361690 23.967293 -41.891827 166.205289 -82.930522 12.396233 21.674918 62.839036 26.443223 -36.937935 -11.102444 1.154039 6.344470 -2.026579 14.775740 -146.812385 80.632876 35.211178 -8.741627 -68.095153 -39.099720 -29.128358 14.535568 -1.183335 12.129193 -1.352386 0.813273 
-35.286649 0.000000 -376.072577 0.000000 -10.082150 0.000000 -1.583373 91.017080 2.119088 89.939161 2.217575 -179.191407 166.915619 0.254507 154.473794 -27.305980 5.477747 -12.605752 89.492599 7.945763 -3.437285 21.454555 0.003112 0.000018 165.816587 12.822072 -174.382146 -42.142364 -0.841349 -0.016825 82.035273 2.105421 9.069372 21.454551 -0.003094 -0.000000 7.326087 -1.094947 -1.211892 4.663195 -2.140209 -2.466973 4.345173 -2.155183 -2.454011 24.058294 -5.840454 -27.246038 -31.278377 23.880003 -41.730295 168.062266 -82.869848 10.522160 22.477564 62.735726 27.388883 -36.610946 -10.947910 1.136094 6.397336 -1.972742 14.730847 -146.576029 80.726890 35.447619 -8.480924 -68.199463 -39.183106 -29.089059 14.483621 -1.179259 12.059308 -1.384845 0.841945 
-35.769557 0.000000 -375.785254 0.000000 -10.203922 0.000000 -1.488762 90.988747 2.080586 90.074964 2.138494 -179.205541 166.728865 -0.000699 154.382779 -27.569631 5.416039 -12.589277 89.330759 7.929410 -3.485464 21.454555 0.003116 0.000019 166.633352 13.296404 -174.760007 -42.012096 -0.692268 -0.709256 82.282058 2.581888 9.123592 21.454548 -0.003094 -0.000000 7.317172 -1.093984 -1.152508 4.644270 -2.141180 -2.348028 4.326216 -2.155450 -2.335063 24.166415 -5.913703 -27.174917 -31.215159 23.783129 -41.588054 169.436965 -82.807606 9.135001 23.292629 62.630271 28.274231 -36.324991 -10.836999 1.122099 6.436478 -1.859715 14.724341 -146.292457 80.794601 35.732803 -8.225143 -68.263230 -39.289213 -29.105822 14.441971 -1.176907 12.005307 -1.300841 0.823502 
-36.264042 0.000000 -375.475482 0.000000 -10.304262 0.000000 -1.393763 90.950560 2.038666 90.205604 2.033901 -179.206198 166.521566 -0.246597 154.363310 -27.858925 5.326515 -12.592988 89.165111 7.926300 -3.536945 21.454557 0.003106 0.000018 167.440988 13.791558 -175.035841 -41.767262 -0.538327 -1.525029 82.524925 3.202262 9.428979 21.454545 -0.003094 -0.000000 7.304688 -1.096327 -1.100174 4.618418 -2.149810 -2.243277 4.300338 -2.163453 -2.230260 24.341235 -5.994356 -27.133651 -31.175039 23.707439 -41.494966 170.176468 -82.751208 8.389433 24.135096 62.526749 29.116995 -36.085778 -10.784012 1.113082 6.491076 -1.684144 14.815059 -146.092216 80.845854 35.934016 -7.909249 -68.302488 -39.489754 -29.167071 14.457784 -1.179063 12.026362 -1.154744 0.730620 
-36.771694 0.000000 -375.142057 0.000000 -10.382238 0.000000 -1.309532 90.901413 1.989111 90.326574 1.910154 -179.228200 166.277786 -0.482300 154.350882 -28.173764 5.253456 -12.604362 88.991702 7.925536 -3.602895 21.454560 0.003097 0.000016 168.184488 14.300003 -175.279238 -41.467751 -0.340161 -2.544434 82.803461 3.969786 9.774667 21.454545 -0.003093 -0.000001 7.290645 -1.100757 -1.051233 4.589528 -2.161952 -2.145352 4.271428 -2.175002 -2.132262 24.543819 -6.128494 -27.122260 -31.137363 23.666739 -41.450990 170.706903 -82.689724 7.855271 24.909538 62.401843 29.868259 -35.906064 -10.732172 1.105440 6.564833 -1.531640 14.913289 -145.942410 80.898939 36.083995 -7.614971 -68.334708 -39.682373 -29.246845 14.524139 -1.184818 12.092572 -0.964307 0.646521 
